<svg width="151" height="44" viewBox="0 0 151 44" fill="none" xmlns="http://www.w3.org/2000/svg">
<path d="M28.85 2.15C29.3167 2.15 29.8834 2.46667 30.55 3.1C31.25 3.7 31.6 4.21667 31.6 4.65C31.6 6.68333 31.5334 9.46667 31.4 13C31.3667 13.8667 31.3334 14.9167 31.3 16.15C31.2667 17.35 31.25 18.75 31.25 20.35C31.25 25.4167 31.55 29.15 32.15 31.55C32.1167 32.35 31.8 32.9333 31.2 33.3C30.6 33.6333 30 33.8 29.4 33.8C28.0667 33.8 27.1834 33.3333 26.75 32.4C26.35 31.4667 26.15 30.1333 26.15 28.4C26.15 21.9667 26.2167 16.05 26.35 10.65C22.5167 14.9167 19.5334 18.5 17.4 21.4C17.4 21.4 17.1 21.6 16.5 22C15.9334 22.5 15.4667 22.75 15.1 22.75C14.2334 22.75 13.5167 22.5333 12.95 22.1C12.3834 21.6667 11.8334 21.0333 11.3 20.2L8.90002 16.8C7.23336 14.4667 6.01669 12.7 5.25002 11.5C5.25002 14.5667 5.40002 18.7333 5.70002 24C5.93336 27.0333 6.05002 29.3167 6.05002 30.85C6.05002 31.65 5.85002 32.3333 5.45002 32.9C5.05003 33.4333 4.41669 33.7 3.55002 33.7C2.68336 33.7 1.96669 33.5333 1.40002 33.2C0.866691 32.8667 0.583358 32.3667 0.550025 31.7C0.583358 31.1333 0.600025 30.2 0.600025 28.9C0.600025 26.3 0.516691 23.1333 0.350025 19.4L0.250025 16.7L0.150025 13.2C0.116691 12.1667 0.0833579 10.9667 0.0500247 9.6C0.0166913 8.2 2.46316e-05 6.68333 2.46316e-05 5.05C2.46316e-05 3.05 1.08336 2.05 3.25002 2.05C3.91669 2.05 4.58336 2.21667 5.25002 2.55C5.95002 2.88333 6.46669 3.36667 6.80002 4C7.06669 5.16667 8.05002 7.1 9.75003 9.8C11.45 12.5 13.1167 15.0333 14.75 17.4C16.2167 15.5333 17.4167 14.1333 18.35 13.2C19.95 11.5667 21.2667 10.05 22.3 8.65C23.3667 7.25 24.5167 5.56666 25.75 3.6C26.05 3.2 26.4834 2.86667 27.05 2.6C27.6167 2.3 28.2167 2.15 28.85 2.15ZM43.8067 43.95C42.54 43.95 41.4733 43.7333 40.6067 43.3C39.7733 42.9 39.14 42.4 38.7067 41.8C38.3067 41.2333 38.1067 40.7333 38.1067 40.3C38.1067 39.7333 38.3067 39.2833 38.7067 38.95C39.1067 38.65 39.59 38.5 40.1567 38.5C40.49 38.5 40.8067 38.6 41.1067 38.8C41.4067 39 41.5733 39.1167 41.6067 39.15C41.84 39.3167 42.0733 39.45 42.3067 39.55C42.54 39.6833 42.79 39.75 43.0567 39.75C43.79 39.75 44.39 39.2667 44.8567 38.3C45.3233 37.3333 45.79 35.7667 46.2567 33.6C44.7567 31.4 43.5067 29.2 42.5067 27L41.3567 24.35C41.19 23.95 40.7233 22.9167 39.9567 21.25C39.2233 19.55 38.49 18.05 37.7567 16.75C37.29 15.8167 37.0567 15.1833 37.0567 14.85C37.0567 14.0167 37.34 13.4 37.9067 13C38.5067 12.6 39.19 12.4 39.9567 12.4C40.49 12.4 40.89 12.5167 41.1567 12.75C41.4567 12.95 41.79 13.3333 42.1567 13.9C43.1233 15.5 44.1733 17.9 45.3067 21.1C45.9733 22.9333 46.5067 24.3333 46.9067 25.3C47.3067 26.2333 47.79 27.1833 48.3567 28.15C48.9233 26.85 49.64 24.6333 50.5067 21.5C51.04 19.7 51.4733 18.2667 51.8067 17.2C52.1733 16.1 52.5733 15.1 53.0067 14.2C53.3067 13.6 53.6733 13.1167 54.1067 12.75C54.5733 12.3833 55.09 12.2 55.6567 12.2C56.2233 12.2 56.8233 12.4167 57.4567 12.85C58.1233 13.25 58.4567 13.7333 58.4567 14.3C58.4567 14.6333 58.34 15.0333 58.1067 15.5C56.8067 18.5 55.6567 21.3333 54.6567 24C53.69 26.6333 52.7567 29.5333 51.8567 32.7C51.3233 34.4667 50.7567 36.15 50.1567 37.75C49.59 39.35 49.19 40.3333 48.9567 40.7C48.29 41.6333 47.54 42.4 46.7067 43C45.8733 43.6333 44.9067 43.95 43.8067 43.95ZM86.3246 22.45C85.0246 22.45 83.9246 22.4167 83.0246 22.35C82.158 22.25 81.008 22.1 79.5746 21.9L79.5246 27.15C79.4913 28.05 79.4746 29.3333 79.4746 31C79.4746 31.8667 79.2246 32.55 78.7246 33.05C78.258 33.5167 77.7246 33.75 77.1246 33.75C76.0246 33.75 75.208 33.6167 74.6746 33.35C74.1413 33.05 73.8746 32.5333 73.8746 31.8C73.8746 30.8333 73.958 29.4667 74.1246 27.7C74.4913 23.9 74.6746 20 74.6746 16C74.6746 12.2667 74.558 8.75 74.3246 5.45C74.358 4.98333 74.5913 4.45 75.0246 3.85C75.4913 3.25 76.0746 2.91666 76.7746 2.85C77.5413 2.85 78.758 2.71666 80.4246 2.45C82.158 2.18333 83.4746 2.05 84.3746 2.05C87.108 2.05 89.2246 2.31667 90.7246 2.85C92.258 3.38333 93.7913 4.26666 95.3246 5.5C96.9913 8.1 97.8246 9.93333 97.8246 11C97.8246 13.2333 97.3746 15.2167 96.4746 16.95C95.5746 18.6833 94.258 20.0333 92.5246 21C90.7913 21.9667 88.7246 22.45 86.3246 22.45ZM85.1746 6.3C84.108 6.3 83.1746 6.36667 82.3746 6.5C81.608 6.6 80.6746 6.78333 79.5746 7.05C79.708 10.1167 79.7746 12.35 79.7746 13.75C79.7746 15.1833 79.7246 16.3833 79.6246 17.35C81.058 17.65 82.1913 17.85 83.0246 17.95C83.858 18.0167 84.7913 18.05 85.8246 18.05C88.2913 18.05 90.0246 17.4167 91.0246 16.15C92.058 14.85 92.5746 13.35 92.5746 11.65C92.5746 11.15 92.4246 10.5333 92.1246 9.8C91.8246 9.06666 91.558 8.58333 91.3246 8.35C90.4246 7.55 89.5413 7.01667 88.6746 6.75C87.8413 6.45 86.6746 6.3 85.1746 6.3ZM119.875 17.7C120.142 18.1667 120.359 18.85 120.525 19.75C120.692 20.6167 120.775 21.4 120.775 22.1C120.775 23.4 120.492 25.25 119.925 27.65C117.625 31.85 114.225 33.95 109.725 33.95C108.059 33.95 106.359 33.4 104.625 32.3C102.892 31.2 101.692 29.9333 101.025 28.5C100.125 25.6333 99.6754 23.8167 99.6754 23.05C99.6754 21.7167 99.9587 20.3 100.525 18.8C101.125 17.3 101.875 16 102.775 14.9C103.342 14.1333 104.359 13.4833 105.825 12.95C107.292 12.3833 108.625 12.1 109.825 12.1C112.159 12.1 114.142 12.55 115.775 13.45C117.409 14.3167 118.775 15.7333 119.875 17.7ZM115.525 25.75C115.692 25.3167 115.775 24.2 115.775 22.4C115.775 21.4333 115.592 20.4833 115.225 19.55C114.892 18.6167 114.392 17.8167 113.725 17.15C113.659 17.0833 113.475 16.9833 113.175 16.85C112.875 16.6833 112.459 16.5333 111.925 16.4C111.425 16.2333 110.842 16.15 110.175 16.15C108.309 16.15 106.942 16.9 106.075 18.4C105.209 19.9 104.775 21.6 104.775 23.5C104.775 23.8333 104.859 24.4667 105.025 25.4C105.225 26.3333 105.392 26.9167 105.525 27.15C105.625 27.3833 105.875 27.7167 106.275 28.15C106.709 28.55 107.225 28.9167 107.825 29.25C108.459 29.55 109.109 29.7 109.775 29.7C111.275 29.7 112.475 29.35 113.375 28.65C114.275 27.9167 114.992 26.95 115.525 25.75ZM131.261 26C131.261 27.2667 131.445 28.25 131.811 28.95C132.211 29.6167 132.711 29.95 133.311 29.95C133.645 29.95 133.961 29.9333 134.261 29.9C134.561 29.8333 134.861 29.8 135.161 29.8C135.495 29.8 135.778 29.9667 136.011 30.3C136.278 30.6333 136.411 31 136.411 31.4C136.411 32.2 136.028 32.8333 135.261 33.3C134.528 33.7333 133.528 33.95 132.261 33.95C131.361 33.95 130.445 33.6833 129.511 33.15C128.611 32.5833 127.861 31.7167 127.261 30.55C126.661 29.35 126.361 27.8667 126.361 26.1C126.361 22.3 126.428 19.0833 126.561 16.45C126.728 13.3167 126.811 9.36667 126.811 4.6C126.811 3.1 126.895 2.05 127.061 1.45C127.261 0.983332 127.578 0.633332 128.011 0.399997C128.478 0.133332 128.961 -5.96046e-07 129.461 -5.96046e-07C129.961 -5.96046e-07 130.395 0.0833327 130.761 0.249999C131.161 0.416666 131.428 0.683332 131.561 1.05C131.695 1.45 131.778 1.85 131.811 2.25C131.878 2.61667 131.911 3.15 131.911 3.85C131.911 5.21666 131.861 6.53333 131.761 7.8C131.695 9.33333 131.661 10.45 131.661 11.15C131.395 17.0167 131.261 21.9667 131.261 26ZM145.422 26C145.422 27.2667 145.605 28.25 145.972 28.95C146.372 29.6167 146.872 29.95 147.472 29.95C147.805 29.95 148.122 29.9333 148.422 29.9C148.722 29.8333 149.022 29.8 149.322 29.8C149.655 29.8 149.938 29.9667 150.172 30.3C150.438 30.6333 150.572 31 150.572 31.4C150.572 32.2 150.188 32.8333 149.422 33.3C148.688 33.7333 147.688 33.95 146.422 33.95C145.522 33.95 144.605 33.6833 143.672 33.15C142.772 32.5833 142.022 31.7167 141.422 30.55C140.822 29.35 140.522 27.8667 140.522 26.1C140.522 22.3 140.588 19.0833 140.722 16.45C140.888 13.3167 140.972 9.36667 140.972 4.6C140.972 3.1 141.055 2.05 141.222 1.45C141.422 0.983332 141.738 0.633332 142.172 0.399997C142.638 0.133332 143.122 -5.96046e-07 143.622 -5.96046e-07C144.122 -5.96046e-07 144.555 0.0833327 144.922 0.249999C145.322 0.416666 145.588 0.683332 145.722 1.05C145.855 1.45 145.938 1.85 145.972 2.25C146.038 2.61667 146.072 3.15 146.072 3.85C146.072 5.21666 146.022 6.53333 145.922 7.8C145.855 9.33333 145.822 10.45 145.822 11.15C145.555 17.0167 145.422 21.9667 145.422 26Z" fill="#546DD8"/>
</svg>
